<svg width="35" height="27" viewBox="0 0 35 27" fill="none" xmlns="http://www.w3.org/2000/svg">
<path id="Vector" d="M33.1825 0.144287H1.79793C1.45111 0.144287 1.11849 0.281251 0.873249 0.525049C0.628009 0.768846 0.490234 1.09951 0.490234 1.44429V23.5443C0.490234 24.2338 0.765783 24.8952 1.25626 25.3828C1.74674 25.8704 2.41198 26.1443 3.10562 26.1443H31.8748C32.5685 26.1443 33.2337 25.8704 33.7242 25.3828C34.2147 24.8952 34.4902 24.2338 34.4902 23.5443V1.44429C34.4902 1.09951 34.3525 0.768846 34.1072 0.525049C33.862 0.281251 33.5294 0.144287 33.1825 0.144287ZM3.10562 10.5443H9.64408V15.7443H3.10562V10.5443ZM12.2595 10.5443H31.8748V15.7443H12.2595V10.5443ZM3.10562 18.3443H9.64408V23.5443H3.10562V18.3443ZM31.8748 23.5443H12.2595V18.3443H31.8748V23.5443Z" fill="#181818"/>
</svg>
