<svg width="53" height="54" viewBox="0 0 53 54" fill="none" xmlns="http://www.w3.org/2000/svg">
<g id="Icon">
<circle id="Background" cx="26.3889" cy="26.8929" r="26.3889" fill="#181818"/>
<g id="Icon_2">
<path id="Iocn" d="M26.3592 39.345C33.2401 39.345 38.8181 33.767 38.8181 26.8862C38.8181 20.0054 33.2401 14.4273 26.3592 14.4273C19.4784 14.4273 13.9004 20.0054 13.9004 26.8862C13.9004 33.767 19.4784 39.345 26.3592 39.345Z" stroke="#F5F5F5" stroke-width="2" stroke-linecap="round" stroke-linejoin="round"/>
<path id="Iocn_2" d="M16.1846 34.076L17.703 33.1546C17.8536 33.0617 17.9779 32.9318 18.0642 32.7774C18.1506 32.6229 18.196 32.449 18.1962 32.2721L18.2221 27.587C18.2242 27.3928 18.2828 27.2034 18.3908 27.0419L20.9605 23.0058C21.0376 22.8865 21.138 22.7842 21.2558 22.7048C21.3736 22.6255 21.5062 22.5708 21.6457 22.5441C21.7852 22.5174 21.9286 22.5193 22.0673 22.5496C22.2061 22.5798 22.3372 22.6379 22.4529 22.7203L24.9966 24.5631C25.2161 24.7162 25.4832 24.7852 25.7493 24.7578L29.8374 24.1998C30.0854 24.1656 30.312 24.0408 30.4733 23.8494L33.3544 20.527C33.5253 20.3245 33.6133 20.0649 33.601 19.8002L33.4582 16.6466" stroke="#F5F5F5" stroke-width="2" stroke-linecap="round" stroke-linejoin="round"/>
<path id="Iocn_3" d="M34.0292 36.7105L32.6276 35.3089C32.4979 35.1793 32.337 35.0854 32.1604 35.0364L29.3701 34.3096C29.125 34.2425 28.9131 34.0879 28.7744 33.875C28.6356 33.6622 28.5798 33.4058 28.6174 33.1545L28.9159 31.0521C28.9455 30.8753 29.0193 30.7088 29.1305 30.5681C29.2417 30.4275 29.3866 30.3172 29.5518 30.2475L33.4971 28.5993C33.6803 28.5229 33.8817 28.5006 34.0772 28.5351C34.2727 28.5696 34.4542 28.6594 34.6002 28.794L37.8317 31.7529" stroke="#F5F5F5" stroke-width="2" stroke-linecap="round" stroke-linejoin="round"/>
</g>
</g>
</svg>
