<svg width="37" height="31" viewBox="0 0 37 31" fill="none" xmlns="http://www.w3.org/2000/svg">
<path id="Vector" d="M36.4902 28.8943C36.4902 29.2259 36.3638 29.5438 36.1388 29.7782C35.9137 30.0126 35.6085 30.1443 35.2902 30.1443H1.69023C1.37197 30.1443 1.06675 30.0126 0.841706 29.7782C0.616663 29.5438 0.490234 29.2259 0.490234 28.8943C0.490234 28.5628 0.616663 28.2449 0.841706 28.0105C1.06675 27.7761 1.37197 27.6444 1.69023 27.6444H35.2902C35.6085 27.6444 35.9137 27.7761 36.1388 28.0105C36.3638 28.2449 36.4902 28.5628 36.4902 28.8943ZM1.73523 11.7389C1.66372 11.4769 1.67631 11.1978 1.77107 10.944C1.86584 10.6902 2.0376 10.4755 2.26023 10.3327L17.8602 0.333179C18.049 0.209757 18.2674 0.144287 18.4902 0.144287C18.7131 0.144287 18.9315 0.209757 19.1202 0.333179L34.7202 10.3327C34.9419 10.4758 35.1128 10.6902 35.207 10.9435C35.3012 11.1967 35.3137 11.4751 35.2425 11.7364C35.1713 11.9977 35.0203 12.2278 34.8124 12.3917C34.6045 12.5557 34.351 12.6446 34.0902 12.6451H30.4902V22.6446H32.8902C33.2085 22.6446 33.5137 22.7763 33.7388 23.0107C33.9638 23.2451 34.0902 23.5631 34.0902 23.8946C34.0902 24.2261 33.9638 24.544 33.7388 24.7784C33.5137 25.0128 33.2085 25.1445 32.8902 25.1445H4.09023C3.77197 25.1445 3.46675 25.0128 3.24171 24.7784C3.01666 24.544 2.89023 24.2261 2.89023 23.8946C2.89023 23.5631 3.01666 23.2451 3.24171 23.0107C3.46675 22.7763 3.77197 22.6446 4.09023 22.6446H6.49023V12.6451H2.89023C2.62931 12.6454 2.3754 12.5571 2.16698 12.3936C1.95856 12.23 1.80699 12.0002 1.73523 11.7389ZM20.8902 21.3947C20.8902 21.7262 21.0167 22.0441 21.2417 22.2785C21.4667 22.5129 21.772 22.6446 22.0902 22.6446C22.4085 22.6446 22.7137 22.5129 22.9388 22.2785C23.1638 22.0441 23.2902 21.7262 23.2902 21.3947V13.895C23.2902 13.5635 23.1638 13.2456 22.9388 13.0112C22.7137 12.7768 22.4085 12.6451 22.0902 12.6451C21.772 12.6451 21.4667 12.7768 21.2417 13.0112C21.0167 13.2456 20.8902 13.5635 20.8902 13.895V21.3947ZM13.6902 21.3947C13.6902 21.7262 13.8167 22.0441 14.0417 22.2785C14.2668 22.5129 14.572 22.6446 14.8902 22.6446C15.2085 22.6446 15.5137 22.5129 15.7388 22.2785C15.9638 22.0441 16.0902 21.7262 16.0902 21.3947V13.895C16.0902 13.5635 15.9638 13.2456 15.7388 13.0112C15.5137 12.7768 15.2085 12.6451 14.8902 12.6451C14.572 12.6451 14.2668 12.7768 14.0417 13.0112C13.8167 13.2456 13.6902 13.5635 13.6902 13.895V21.3947Z" fill="#181818"/>
</svg>
