<svg width="106" height="72" viewBox="0 0 106 72" fill="none" xmlns="http://www.w3.org/2000/svg">
<g id="Icon">
<g id="Icon_2">
<circle id="Icon_3" cx="65.9925" cy="27.4646" r="23.7884" fill="#DADADA"/>
<path id="Icon_4" d="M35.5653 1.54458C35.715 1.08392 36.3667 1.08392 36.5163 1.54458L37.6619 5.07029C37.7288 5.2763 37.9208 5.41578 38.1374 5.41578H41.8446C42.3289 5.41578 42.5303 6.03559 42.1385 6.32029L39.1393 8.4993C38.9641 8.62662 38.8908 8.85231 38.9577 9.05832L40.1033 12.584C40.2529 13.0447 39.7257 13.4277 39.3338 13.143L36.3347 10.964C36.1595 10.8367 35.9222 10.8367 35.7469 10.964L32.7478 13.143C32.3559 13.4277 31.8287 13.0447 31.9783 12.584L33.1239 9.05832C33.1909 8.8523 33.1175 8.62662 32.9423 8.4993L29.9431 6.32029C29.5513 6.03559 29.7527 5.41578 30.237 5.41578H33.9442C34.1608 5.41578 34.3528 5.2763 34.4197 5.07029L35.5653 1.54458Z" fill="#FFCC4A"/>
<path id="Icon_5" d="M15.5681 63.6136C15.8403 63.8858 15.7157 64.3505 15.3439 64.4502L5.03438 67.2126C4.66259 67.3122 4.32238 66.972 4.422 66.6002L7.18445 56.2907C7.28407 55.9189 7.7488 55.7944 8.02096 56.0665L15.5681 63.6136Z" fill="#4EAF4E"/>
<circle id="Icon_6" cx="99.9912" cy="19.0639" r="5.88667" fill="#DADADA"/>
</g>
<g id="Icon_7">
<path id="Icon_8" d="M77.3834 22.3911H29.8743C28.6817 22.3911 27.7148 23.358 27.7148 24.5506V56.9431C27.7148 58.1358 28.6817 59.1026 29.8743 59.1026H77.3834C78.576 59.1026 79.5429 58.1358 79.5429 56.9431V24.5506C79.5429 23.358 78.576 22.3911 77.3834 22.3911Z" fill="white" stroke="#282828" stroke-width="2" stroke-linecap="round" stroke-linejoin="round"/>
<path id="Icon_9" d="M77.3834 22.3911H29.8743C28.6817 22.3911 27.7148 23.358 27.7148 24.5506V56.9431C27.7148 58.1358 28.6817 59.1026 29.8743 59.1026H77.3834C78.576 59.1026 79.5429 58.1358 79.5429 56.9431V24.5506C79.5429 23.358 78.576 22.3911 77.3834 22.3911Z" fill="white" stroke="#282828" stroke-width="2" stroke-linecap="round" stroke-linejoin="round"/>
<path id="Icon_10" d="M77.3834 48.809H29.8743C28.6817 48.809 27.7148 49.0801 27.7148 49.4145V58.4971C27.7148 58.8315 28.6817 59.1026 29.8743 59.1026H77.3834C78.576 59.1026 79.5429 58.8315 79.5429 58.4971V49.4145C79.5429 49.0801 78.576 48.809 77.3834 48.809Z" fill="#4EAF4E" stroke="#282828" stroke-width="2" stroke-linecap="round" stroke-linejoin="round"/>
<path id="Icon_11" d="M62.2666 59.1028L70.9046 69.9003" stroke="#282828" stroke-width="2" stroke-linecap="round" stroke-linejoin="round"/>
<path id="Icon_12" d="M44.9905 59.1028L36.3525 69.9003" stroke="#282828" stroke-width="2" stroke-linecap="round" stroke-linejoin="round"/>
<path id="Icon_13" d="M44.9912 41.8267V48.3052" stroke="#282828" stroke-width="2" stroke-linecap="round" stroke-linejoin="round"/>
<path id="Icon_14" d="M53.6289 37.5077V48.3052" stroke="#282828" stroke-width="2" stroke-linecap="round" stroke-linejoin="round"/>
<path id="Icon_15" d="M62.2666 33.1887V48.3052" stroke="#282828" stroke-width="2" stroke-linecap="round" stroke-linejoin="round"/>
<path id="Icon_16" d="M53.6289 22.3911V15.9126" stroke="#282828" stroke-width="2" stroke-linecap="round" stroke-linejoin="round"/>
</g>
</g>
</svg>
