<svg width="89" height="88" viewBox="0 0 89 88" fill="none" xmlns="http://www.w3.org/2000/svg">
<g id="4">
<circle id="Ellipse 14" cx="21.289" cy="66.708" r="20.8965" fill="#DADADA"/>
<path id="Star 13" d="M56.6919 1.78579C56.8416 1.32514 57.4933 1.32514 57.643 1.78579L58.766 5.24214C58.833 5.44815 59.025 5.58763 59.2416 5.58763L62.8758 5.58763C63.3601 5.58763 63.5615 6.20744 63.1697 6.49214L60.2295 8.62828C60.0543 8.7556 59.981 8.98129 60.0479 9.1873L61.1709 12.6436C61.3206 13.1043 60.7934 13.4874 60.4015 13.2027L57.4614 11.0665C57.2861 10.9392 57.0488 10.9392 56.8736 11.0665L53.9334 13.2027C53.5416 13.4874 53.0143 13.1043 53.164 12.6436L54.287 9.1873C54.354 8.98129 54.2807 8.7556 54.1054 8.62828L51.1653 6.49214C50.7734 6.20744 50.9748 5.58763 51.4592 5.58763L55.0934 5.58763C55.31 5.58763 55.502 5.44815 55.5689 5.24214L56.6919 1.78579Z" fill="#141414"/>
<path id="Polygon 1" d="M29.5893 68.9522C29.8614 69.2244 29.7369 69.6891 29.3651 69.7887L19.3377 72.4756C18.9659 72.5752 18.6257 72.235 18.7253 71.8632L21.4122 61.8358C21.5118 61.464 21.9765 61.3395 22.2487 61.6116L29.5893 68.9522Z" fill="#4EAF4E"/>
<circle id="Ellipse 13" cx="73.3737" cy="23.7543" r="6.02949" fill="#DADADA"/>
<g id="Icon">
<g id="Vector">
<path d="M63.8211 34.5193C75.0297 35.5634 83.4746 40.0161 83.4746 45.3594C83.4746 51.4704 72.4809 56.4145 58.9077 56.4145C52.8888 56.4145 47.3613 55.4319 43.0928 53.835" fill="#4EAF4E"/>
<path d="M63.8211 34.5193C75.0297 35.5634 83.4746 40.0161 83.4746 45.3594C83.4746 51.4704 72.4809 56.4145 58.9077 56.4145C52.8888 56.4145 47.3613 55.4319 43.0928 53.835" stroke="#141414" stroke-width="2" stroke-linecap="round" stroke-linejoin="round"/>
</g>
<g id="Vector_2">
<path d="M14.6875 30.6191V42.9026C14.6875 49.0136 25.6812 53.9577 39.2544 53.9577C52.8276 53.9577 63.8213 49.0136 63.8213 42.9026V30.6191" fill="white"/>
<path d="M14.6875 30.6191V42.9026C14.6875 49.0136 25.6812 53.9577 39.2544 53.9577C52.8276 53.9577 63.8213 49.0136 63.8213 42.9026V30.6191" stroke="#141414" stroke-width="2" stroke-linecap="round" stroke-linejoin="round"/>
</g>
<path id="Vector_3" d="M39.2544 41.6744C52.8223 41.6744 63.8213 36.7249 63.8213 30.6193C63.8213 24.5137 52.8223 19.5642 39.2544 19.5642C25.6865 19.5642 14.6875 24.5137 14.6875 30.6193C14.6875 36.7249 25.6865 41.6744 39.2544 41.6744Z" fill="#FFCC4A" stroke="#141414" stroke-width="2" stroke-linecap="round" stroke-linejoin="round"/>
<path id="Vector_4" d="M29.4272 40.7532V53.0366" stroke="#141414" stroke-width="2" stroke-linecap="round" stroke-linejoin="round"/>
<path id="Vector_5" d="M34.3408 53.7431V57.6431C34.3408 63.7541 45.3345 68.6982 58.9077 68.6982C72.4809 68.6982 83.4746 63.7541 83.4746 57.6431V45.3596" stroke="#141414" stroke-width="2" stroke-linecap="round" stroke-linejoin="round"/>
<path id="Vector_6" d="M68.7344 55.4934V67.7769" stroke="#141414" stroke-width="2" stroke-linecap="round" stroke-linejoin="round"/>
<path id="Vector_7" d="M49.0811 40.7532V67.7768" stroke="#141414" stroke-width="2" stroke-linecap="round" stroke-linejoin="round"/>
</g>
</g>
</svg>
