<svg width="105" height="66" viewBox="0 0 105 66" fill="none" xmlns="http://www.w3.org/2000/svg">
<g id="5">
<circle id="Ellipse 14" cx="22.864" cy="50.1579" r="15.5573" fill="#DADADA"/>
<path id="Star 13" d="M77.7488 1.66079C77.8985 1.20013 78.5502 1.20014 78.6999 1.66079L79.6653 4.63213C79.7323 4.83814 79.9242 4.97762 80.1408 4.97762H83.2651C83.7495 4.97762 83.9508 5.59743 83.559 5.88213L81.0314 7.71852C80.8562 7.84584 80.7828 8.07152 80.8498 8.27753L81.8152 11.2489C81.9649 11.7095 81.4377 12.0926 81.0458 11.8079L78.5182 9.9715C78.343 9.84418 78.1057 9.84418 77.9305 9.9715L75.4029 11.8079C75.011 12.0926 74.4838 11.7095 74.6335 11.2489L75.5989 8.27753C75.6658 8.07152 75.5925 7.84584 75.4173 7.71852L72.8897 5.88213C72.4978 5.59743 72.6992 4.97762 73.1836 4.97762H76.3078C76.5245 4.97762 76.7164 4.83814 76.7834 4.63213L77.7488 1.66079Z" fill="#141414"/>
<path id="Polygon 1" d="M12.1127 54.7312C12.3849 55.0033 12.2604 55.4681 11.8886 55.5677L3.84329 57.7234C3.47151 57.823 3.1313 57.4828 3.23092 57.111L5.38665 49.0658C5.48626 48.694 5.951 48.5694 6.22316 48.8416L12.1127 54.7312Z" fill="#4EAF4E"/>
<circle id="Ellipse 13" cx="97.8168" cy="21.6025" r="7.05852" fill="#DADADA"/>
<g id="Icon">
<path id="Rectangle 31" d="M22.6831 28.5752H79.1757V54.6457C79.1757 55.7502 78.2803 56.6457 77.1757 56.6457H25.6831C24.0262 56.6457 22.6831 55.3025 22.6831 53.6457V28.5752Z" fill="#FFCC4A"/>
<path id="Rectangle 32" d="M64.7813 28.1365L22.6774 28.1365L22.6774 20.6767C22.6774 19.0198 24.0206 17.6767 25.6774 17.6767L62.7812 17.6767C63.8858 17.6767 64.7813 18.5721 64.7813 19.6767L64.7813 28.1365Z" fill="#4EAF4E" stroke="#141414" stroke-width="2"/>
<path id="Vector" d="M76.529 17.4087H24.5838C23.3885 17.4087 22.4194 18.3777 22.4194 19.5731V54.2032C22.4194 55.3986 23.3885 56.3676 24.5838 56.3676H76.529C77.7244 56.3676 78.6934 55.3986 78.6934 54.2032V19.5731C78.6934 18.3777 77.7244 17.4087 76.529 17.4087Z" stroke="#141414" stroke-width="2" stroke-linecap="round" stroke-linejoin="round"/>
<path id="Vector_2" d="M61.3784 47.7102H70.036" stroke="#141414" stroke-width="2" stroke-linecap="round" stroke-linejoin="round"/>
<path id="Vector_3" d="M48.3921 47.7102H52.7209" stroke="#141414" stroke-width="2" stroke-linecap="round" stroke-linejoin="round"/>
<path id="Vector_4" d="M22.4194 28.4744H78.6934" stroke="#141414" stroke-width="2" stroke-linecap="round" stroke-linejoin="round"/>
</g>
</g>
</svg>
