<svg width="102" height="72" viewBox="0 0 102 72" fill="none" xmlns="http://www.w3.org/2000/svg">
<g id="3">
<g id="Icon">
<circle id="Ellipse 14" cx="73.8133" cy="26.9974" r="23.7884" fill="#DADADA"/>
<path id="Star 13" d="M94.7931 51.5521C94.9428 51.0915 95.5945 51.0915 95.7441 51.5521L96.6677 54.3945C96.7346 54.6005 96.9266 54.74 97.1432 54.74H100.132C100.616 54.74 100.818 55.3598 100.426 55.6445L98.0079 57.4012C97.8326 57.5285 97.7593 57.7542 97.8262 57.9602L98.7498 60.8025C98.8994 61.2632 98.3722 61.6462 97.9803 61.3615L95.5625 59.6049C95.3873 59.4775 95.15 59.4775 94.9747 59.6049L92.5569 61.3615C92.165 61.6462 91.6378 61.2632 91.7875 60.8025L92.711 57.9602C92.7779 57.7542 92.7046 57.5285 92.5294 57.4012L90.1115 55.6445C89.7197 55.3598 89.9211 54.74 90.4054 54.74H93.394C93.6106 54.74 93.8026 54.6005 93.8696 54.3945L94.7931 51.5521Z" fill="#141414"/>
<path id="Polygon 1" d="M15.1531 38.0138C15.4252 38.286 15.3007 38.7507 14.9289 38.8503L4.61934 41.6128C4.24755 41.7124 3.90735 41.3722 4.00696 41.0004L6.76941 30.6908C6.86903 30.319 7.33376 30.1945 7.60592 30.4667L15.1531 38.0138Z" fill="#4EAF4E"/>
<circle id="Ellipse 13" cx="48.3852" cy="5.14449" r="5.02144" fill="#DADADA"/>
</g>
<g id="Icon_2">
<path id="Vector" d="M80.2425 23.9062H22.0948C20.8597 23.9062 19.8584 24.9075 19.8584 26.1427V57.453C19.8584 58.6881 20.8597 59.6894 22.0948 59.6894H80.2425C81.4777 59.6894 82.479 58.6881 82.479 57.453V26.1427C82.479 24.9075 81.4777 23.9062 80.2425 23.9062Z" fill="#EBEBEB" stroke="#141414" stroke-width="2" stroke-linecap="round" stroke-linejoin="round"/>
<path id="Vector 2" d="M82.5855 43.8401L64.6767 59.835L79.5854 59.835C81.2423 59.835 82.5854 58.4918 82.5854 56.835L82.5855 43.8401Z" fill="#4EAF4E" stroke="black"/>
<path id="Vector 1" d="M19.7539 39.6438L37.6627 23.6489H22.7539C21.0971 23.6489 19.7539 24.9921 19.7539 26.6489V39.6438Z" fill="#4EAF4E" stroke="black"/>
<path id="Vector_2" d="M51.1689 50.7436C56.1096 50.7436 60.1147 46.7385 60.1147 41.7978C60.1147 36.8572 56.1096 32.8521 51.1689 32.8521C46.2283 32.8521 42.2231 36.8572 42.2231 41.7978C42.2231 46.7385 46.2283 50.7436 51.1689 50.7436Z" fill="#FFCC4A" stroke="#141414" stroke-width="2" stroke-linecap="round" stroke-linejoin="round"/>
<path id="Vector_3" d="M64.5879 23.9062L82.4795 39.5614" stroke="#141414" stroke-width="2" stroke-linecap="round" stroke-linejoin="round"/>
<path id="Vector_4" d="M64.5879 59.6893L82.4795 44.0342" stroke="#141414" stroke-width="2" stroke-linecap="round" stroke-linejoin="round"/>
<path id="Vector_5" d="M37.75 23.906L19.8584 39.5612" stroke="#141414" stroke-width="2" stroke-linecap="round" stroke-linejoin="round"/>
<path id="Vector_6" d="M37.75 59.6893L19.8584 44.0342" stroke="#141414" stroke-width="2" stroke-linecap="round" stroke-linejoin="round"/>
</g>
</g>
</svg>
