<svg width="102" height="91" viewBox="0 0 102 91" fill="none" xmlns="http://www.w3.org/2000/svg">
<g id="6">
<circle id="Ellipse 14" cx="24.4603" cy="66.7835" r="23.7884" fill="#DADADA"/>
<path id="Star 13" d="M74.9244 2.05337C75.0741 1.59271 75.7258 1.59271 75.8755 2.05337L76.799 4.89571C76.866 5.10172 77.0579 5.2412 77.2746 5.2412H80.2632C80.7475 5.2412 80.9489 5.86101 80.5571 6.14571L78.1392 7.90237C77.964 8.02969 77.8906 8.25538 77.9576 8.46139L78.8811 11.3037C79.0308 11.7644 78.5036 12.1474 78.1117 11.8627L75.6939 10.1061C75.5186 9.97876 75.2813 9.97876 75.1061 10.1061L72.6882 11.8627C72.2964 12.1474 71.7691 11.7644 71.9188 11.3037L72.8423 8.46139C72.9093 8.25538 72.836 8.02969 72.6607 7.90237L70.2429 6.14571C69.851 5.86101 70.0524 5.2412 70.5368 5.2412H73.5254C73.742 5.2412 73.934 5.10172 74.0009 4.89571L74.9244 2.05337Z" fill="#141414"/>
<path id="Polygon 1" d="M16.636 44.5787C16.9081 44.8509 16.7836 45.3156 16.4118 45.4153L6.10225 48.1777C5.73046 48.2773 5.39026 47.9371 5.48988 47.5653L8.25232 37.2557C8.35194 36.884 8.81667 36.7594 9.08883 37.0316L16.636 44.5787Z" fill="#4EAF4E"/>
<circle id="Ellipse 13" cx="94.0622" cy="18.2666" r="7.25703" fill="#DADADA"/>
<g id="Icon">
<g id="Group 6">
<rect id="Rectangle 33" x="29.3521" y="57.0173" width="51.8211" height="8.02848" fill="#4EAF4E"/>
<path id="Vector" d="M26.8975 35.1357H83.628L55.2627 17.6802L26.8975 35.1357Z" fill="#FFCC4A" stroke="#141414" stroke-width="2" stroke-linecap="round" stroke-linejoin="round"/>
<path id="Vector_2" d="M35.625 35.1357V56.9552" stroke="#141414" stroke-width="2" stroke-linecap="round" stroke-linejoin="round"/>
<path id="Vector_3" d="M48.7168 35.1357V56.9552" stroke="#141414" stroke-width="2" stroke-linecap="round" stroke-linejoin="round"/>
<path id="Vector_4" d="M61.8086 35.1357V56.9552" stroke="#141414" stroke-width="2" stroke-linecap="round" stroke-linejoin="round"/>
<path id="Vector_5" d="M74.8999 35.1357V56.9552" stroke="#141414" stroke-width="2" stroke-linecap="round" stroke-linejoin="round"/>
<path id="Vector_6" d="M29.0791 56.9551H81.4458" stroke="#141414" stroke-width="2" stroke-linecap="round" stroke-linejoin="round"/>
<path id="Vector_7" d="M24.7153 65.6831H85.8098" stroke="#141414" stroke-width="2" stroke-linecap="round" stroke-linejoin="round"/>
</g>
</g>
</g>
</svg>
