<svg width="99" height="91" viewBox="0 0 99 91" fill="none" xmlns="http://www.w3.org/2000/svg">
<g id="1">
<circle id="Ellipse 14" cx="23.7884" cy="66.4388" r="23.7884" fill="#DDDDDD"/>
<path id="Star 13" d="M79.3854 2.15493C79.535 1.69428 80.1868 1.69428 80.3364 2.15493L81.26 4.99727C81.3269 5.20328 81.5189 5.34276 81.7355 5.34276H84.7241C85.2085 5.34276 85.4099 5.96257 85.018 6.24727L82.6002 8.00393C82.4249 8.13126 82.3516 8.35694 82.4185 8.56295L83.3421 11.4053C83.4917 11.8659 82.9645 12.249 82.5726 11.9643L80.1548 10.2076C79.9795 10.0803 79.7423 10.0803 79.567 10.2076L77.1492 11.9643C76.7573 12.249 76.2301 11.8659 76.3797 11.4053L77.3033 8.56295C77.3702 8.35694 77.2969 8.13126 77.1216 8.00393L74.7038 6.24727C74.3119 5.96257 74.5133 5.34276 74.9977 5.34276H77.9863C78.2029 5.34276 78.3949 5.20328 78.4618 4.99727L79.3854 2.15493Z" fill="#141414"/>
<path id="Polygon 1" d="M29.698 77.5704C29.9701 77.8426 29.8456 78.3073 29.4738 78.407L19.1643 81.1694C18.7925 81.269 18.4523 80.9288 18.5519 80.557L21.3143 70.2474C21.4139 69.8757 21.8787 69.7511 22.1508 70.0233L29.698 77.5704Z" fill="#4EAF4E"/>
<circle id="Ellipse 13" cx="91.6047" cy="24.3935" r="7.25703" fill="#DADADA"/>
<g id="Icon">
<path id="Ellipse 12" d="M31.2994 62.0913C35.1132 68.6969 41.3947 73.5169 48.7623 75.491C56.1298 77.4651 63.9798 76.4317 70.5854 72.6179C77.191 68.8042 82.011 62.5226 83.9851 55.1551C85.9592 47.7876 84.9258 39.9375 81.112 33.332L56.2057 47.7116L31.2994 62.0913Z" fill="#FFCC4A"/>
<path id="Vector" d="M55.979 46.8822V17.8398" stroke="#141414" stroke-width="2" stroke-linecap="round" stroke-linejoin="round"/>
<path id="Vector_2" d="M81.1189 32.3611L30.8394 61.4034" stroke="#141414" stroke-width="2" stroke-linecap="round" stroke-linejoin="round"/>
<path id="Vector_3" d="M27.4209 52.2065C27.0907 50.4511 26.9286 48.6682 26.9368 46.8821C26.933 40.8758 28.7935 35.0163 32.2615 30.1123C35.7295 25.2083 40.6341 21.5016 46.2984 19.5037V41.2854L27.4209 52.2065Z" fill="#4EAF4E" stroke="#141414" stroke-width="2" stroke-linecap="round" stroke-linejoin="round"/>
<path id="Vector_4" d="M27.4209 52.2065C27.0907 50.4511 26.9286 48.6682 26.9368 46.8821C26.933 40.8758 28.7935 35.0163 32.2615 30.1123C35.7295 25.2083 40.6341 21.5016 46.2984 19.5037V41.2854L27.4209 52.2065Z" stroke="#141414" stroke-width="2" stroke-linecap="round" stroke-linejoin="round"/>
<path id="Vector_5" d="M55.9792 17.8398C61.0681 17.8404 66.0676 19.1782 70.4768 21.7191C74.886 24.26 78.5501 27.9149 81.1022 32.3177C83.6543 36.7205 85.0047 41.7165 85.0181 46.8054C85.0315 51.8944 83.7076 56.8975 81.1788 61.3137C78.65 65.7299 75.0052 69.4041 70.6095 71.9683C66.2138 74.5324 61.2215 75.8966 56.1326 75.924C51.0437 75.9515 46.037 74.6413 41.6138 72.1247C37.1907 69.6081 33.5065 65.9735 30.9302 61.5848" stroke="#141414" stroke-width="2" stroke-linecap="round" stroke-linejoin="round"/>
</g>
</g>
</svg>
