<svg width="97" height="72" viewBox="0 0 97 72" fill="none" xmlns="http://www.w3.org/2000/svg">
<g id="2">
<g id="Icon">
<circle id="Ellipse 14" cx="65.7933" cy="27.776" r="23.7884" fill="#EFEFEF"/>
<path id="Star 13" d="M35.3661 1.8561C35.5157 1.39545 36.1674 1.39545 36.3171 1.8561L37.4627 5.38181C37.5296 5.58783 37.7216 5.72731 37.9382 5.72731H41.6454C42.1297 5.72731 42.3311 6.34711 41.9393 6.63181L38.9401 8.81082C38.7649 8.93814 38.6915 9.16383 38.7585 9.36984L39.904 12.8956C40.0537 13.3562 39.5265 13.7393 39.1346 13.4546L36.1355 11.2756C35.9602 11.1482 35.7229 11.1482 35.5477 11.2756L32.5485 13.4546C32.1567 13.7393 31.6294 13.3562 31.7791 12.8955L32.9247 9.36984C32.9916 9.16383 32.9183 8.93814 32.7431 8.81082L29.7439 6.63181C29.3521 6.34711 29.5534 5.72731 30.0378 5.72731H33.745C33.9616 5.72731 34.1535 5.58783 34.2205 5.38181L35.3661 1.8561Z" fill="#FFCC4A"/>
<path id="Polygon 1" d="M15.3689 63.9252C15.641 64.1973 15.5165 64.6621 15.1447 64.7617L4.83516 67.5241C4.46337 67.6237 4.12317 67.2835 4.22279 66.9118L6.98523 56.6022C7.08485 56.2304 7.54958 56.1059 7.82174 56.378L15.3689 63.9252Z" fill="#4EAF4E"/>
<circle id="Ellipse 13" cx="90.7915" cy="20.3754" r="5.88667" fill="#D0D0D0"/>
</g>
<g id="Icon_2">
<path id="Vector" d="M77.1837 22.7026H29.6746C28.482 22.7026 27.5151 23.6695 27.5151 24.8621V57.2547C27.5151 58.4473 28.482 59.4142 29.6746 59.4142H77.1837C78.3763 59.4142 79.3432 58.4473 79.3432 57.2547V24.8621C79.3432 23.6695 78.3763 22.7026 77.1837 22.7026Z" fill="white" stroke="white" stroke-width="2" stroke-linecap="round" stroke-linejoin="round"/>
<path id="Vector_2" d="M77.1837 22.7026H29.6746C28.482 22.7026 27.5151 23.6695 27.5151 24.8621V57.2547C27.5151 58.4473 28.482 59.4142 29.6746 59.4142H77.1837C78.3763 59.4142 79.3432 58.4473 79.3432 57.2547V24.8621C79.3432 23.6695 78.3763 22.7026 77.1837 22.7026Z" stroke="#141414" stroke-width="2" stroke-linecap="round" stroke-linejoin="round"/>
<path id="Vector_3" d="M77.1837 49.1206H29.6746C28.482 49.1206 27.5151 49.3917 27.5151 49.7261V58.8088C27.5151 59.1432 28.482 59.4143 29.6746 59.4143H77.1837C78.3763 59.4143 79.3432 59.1432 79.3432 58.8088V49.7261C79.3432 49.3917 78.3763 49.1206 77.1837 49.1206Z" fill="#4EAF4E" stroke="#141414" stroke-width="2" stroke-linecap="round" stroke-linejoin="round"/>
<path id="Vector_4" d="M62.0674 59.4143L70.7054 70.2118" stroke="#141414" stroke-width="2" stroke-linecap="round" stroke-linejoin="round"/>
<path id="Vector_5" d="M44.7913 59.4143L36.1533 70.2118" stroke="#141414" stroke-width="2" stroke-linecap="round" stroke-linejoin="round"/>
<path id="Vector_6" d="M44.791 42.1382V48.6167" stroke="#141414" stroke-width="2" stroke-linecap="round" stroke-linejoin="round"/>
<path id="Vector_7" d="M53.4292 37.8191V48.6166" stroke="#141414" stroke-width="2" stroke-linecap="round" stroke-linejoin="round"/>
<path id="Vector_8" d="M62.0674 33.5002V48.6168" stroke="#141414" stroke-width="2" stroke-linecap="round" stroke-linejoin="round"/>
<path id="Vector_9" d="M53.4292 22.7026V16.2241" stroke="#141414" stroke-width="2" stroke-linecap="round" stroke-linejoin="round"/>
</g>
</g>
</svg>
