<svg width="39" height="27" viewBox="0 0 39 27" fill="none" xmlns="http://www.w3.org/2000/svg">
<path id="Icon" d="M35.7759 0.144287H3.20452C2.48465 0.144287 1.79426 0.418386 1.28523 0.906286C0.776203 1.39419 0.490234 2.05592 0.490234 2.74591V8.09551V23.5427C0.490234 24.2327 0.776203 24.8944 1.28523 25.3823C1.79426 25.8702 2.48465 26.1443 3.20452 26.1443H35.7759C36.4958 26.1443 37.1862 25.8702 37.6952 25.3823C38.2043 24.8944 38.4902 24.2327 38.4902 23.5427V2.74591C38.4902 2.05592 38.2043 1.39419 37.6952 0.906286C37.1862 0.418386 36.4958 0.144287 35.7759 0.144287ZM20.8474 20.9573H18.1331C17.7732 20.9573 17.428 20.8202 17.1734 20.5763C16.9189 20.3323 16.7759 20.0015 16.7759 19.6565C16.7759 19.3115 16.9189 18.9806 17.1734 18.7367C17.428 18.4927 17.7732 18.3557 18.1331 18.3557H20.8474C21.2073 18.3557 21.5525 18.4927 21.807 18.7367C22.0615 18.9806 22.2045 19.3115 22.2045 19.6565C22.2045 20.0015 22.0615 20.3323 21.807 20.5763C21.5525 20.8202 21.2073 20.9573 20.8474 20.9573ZM31.7045 20.9573H26.2759C25.916 20.9573 25.5708 20.8202 25.3163 20.5763C25.0618 20.3323 24.9188 20.0015 24.9188 19.6565C24.9188 19.3115 25.0618 18.9806 25.3163 18.7367C25.5708 18.4927 25.916 18.3557 26.2759 18.3557H31.7045C32.0645 18.3557 32.4097 18.4927 32.6642 18.7367C32.9187 18.9806 33.0617 19.3115 33.0617 19.6565C33.0617 20.0015 32.9187 20.3323 32.6642 20.5763C32.4097 20.8202 32.0645 20.9573 31.7045 20.9573ZM3.20452 6.79469V2.74591H35.7759V6.79469H3.20452Z" fill="#FFCC4A"/>
</svg>
