<svg width="25" height="24" viewBox="0 0 25 24" fill="none" xmlns="http://www.w3.org/2000/svg">
<path d="M17.5194 2.19269C18.8447 2.1965 20.1145 2.7048 21.0517 3.60658C21.9888 4.50836 22.517 5.73034 22.521 7.00565V16.6305C22.517 17.9058 21.9888 19.1278 21.0517 20.0296C20.1145 20.9314 18.8447 21.4397 17.5194 21.4435H7.51715C6.19185 21.4397 4.92196 20.9314 3.98483 20.0296C3.04769 19.1278 2.51947 17.9058 2.51551 16.6305V7.00565C2.51947 5.73034 3.04769 4.50836 3.98483 3.60658C4.92196 2.7048 6.19185 2.1965 7.51715 2.19269H17.5194ZM17.5194 0.267822H7.51715C3.66598 0.267822 0.515175 3.29977 0.515175 7.00565V16.6305C0.515175 20.3364 3.66598 23.3684 7.51715 23.3684H17.5194C21.3705 23.3684 24.5213 20.3364 24.5213 16.6305V7.00565C24.5213 3.29977 21.3705 0.267822 17.5194 0.267822Z" fill="#181818"/>
<path d="M19.0192 7.00622C18.7224 7.00622 18.4323 6.92154 18.1856 6.7629C17.9389 6.60425 17.7466 6.37876 17.633 6.11495C17.5194 5.85113 17.4897 5.56083 17.5476 5.28077C17.6055 5.0007 17.7484 4.74344 17.9582 4.54153C18.1681 4.33961 18.4354 4.2021 18.7265 4.14639C19.0175 4.09069 19.3192 4.11928 19.5934 4.22855C19.8675 4.33783 20.1018 4.52288 20.2667 4.76031C20.4316 4.99774 20.5196 5.27688 20.5196 5.56244C20.52 5.75215 20.4815 5.94008 20.4062 6.11543C20.331 6.29078 20.2205 6.45011 20.0811 6.58425C19.9416 6.7184 19.7761 6.82474 19.5939 6.89715C19.4116 6.96956 19.2163 7.00663 19.0192 7.00622ZM12.5177 7.9684C13.3091 7.9684 14.0826 8.19421 14.7406 8.61728C15.3986 9.04036 15.9115 9.64168 16.2143 10.3452C16.5172 11.0488 16.5964 11.8229 16.442 12.5698C16.2876 13.3167 15.9065 14.0027 15.347 14.5412C14.7874 15.0797 14.0744 15.4464 13.2983 15.5949C12.5221 15.7435 11.7176 15.6673 10.9865 15.3758C10.2554 15.0844 9.63047 14.5909 9.19081 13.9577C8.75115 13.3246 8.51649 12.5802 8.51649 11.8187C8.51762 10.7978 8.93954 9.81915 9.68967 9.09732C10.4398 8.37549 11.4569 7.96949 12.5177 7.9684ZM12.5177 6.04352C11.3307 6.04352 10.1704 6.38223 9.18342 7.01681C8.19647 7.65139 7.42724 8.55334 6.97299 9.60861C6.51875 10.6639 6.3999 11.8251 6.63147 12.9453C6.86304 14.0656 7.43463 15.0946 8.27396 15.9023C9.11329 16.71 10.1827 17.26 11.3468 17.4828C12.511 17.7057 13.7177 17.5913 14.8144 17.1542C15.911 16.7171 16.8483 15.9769 17.5078 15.0271C18.1672 14.0774 18.5192 12.9609 18.5192 11.8187C18.5192 10.287 17.8869 8.81807 16.7614 7.73502C15.6359 6.65197 14.1094 6.04352 12.5177 6.04352Z" fill="#181818"/>
</svg>
