<svg width="30" height="30" viewBox="0 0 30 30" fill="none" xmlns="http://www.w3.org/2000/svg">
<g id="Linked In">
<path id="Icon" d="M14.8402 29.24C22.9146 29.24 29.4602 22.6944 29.4602 14.62C29.4602 6.5456 22.9146 0 14.8402 0C6.76581 0 0.220215 6.5456 0.220215 14.62C0.220215 22.6944 6.76581 29.24 14.8402 29.24Z" fill="black"/>
<path id="Icon_2" d="M8.71096 11.8999H11.541V20.9999H8.71096V11.8999ZM10.121 7.37988C11.031 7.37988 11.761 8.10988 11.761 9.01988C11.761 9.91988 11.031 10.6599 10.121 10.6599C9.21096 10.6599 8.48096 9.91988 8.48096 9.01988C8.48096 8.10988 9.22096 7.37988 10.121 7.37988Z" fill="white"/>
<path id="Icon_3" d="M13.3103 11.8999H16.0203V13.1399H16.0603C16.4403 12.4199 17.3603 11.6699 18.7403 11.6699C21.6003 11.6699 22.1303 13.5499 22.1303 15.9999V20.9899H19.3003V16.5699C19.3003 15.5099 19.2803 14.1599 17.8303 14.1599C16.3603 14.1599 16.1303 15.3099 16.1303 16.4999V20.9999H13.3003V11.8999H13.3103Z" fill="white"/>
</g>
</svg>
