<svg width="39" height="39" viewBox="0 0 39 39" fill="none" xmlns="http://www.w3.org/2000/svg">
<path id="Icon" d="M19.4902 0.144287C15.7324 0.144287 12.0589 1.25862 8.93441 3.34636C5.80987 5.43411 3.3746 8.4015 1.93653 11.8733C0.498467 15.3451 0.122203 19.1654 0.855323 22.851C1.58844 26.5366 3.39802 29.9221 6.05521 32.5793C8.71241 35.2365 12.0979 37.0461 15.7835 37.7792C19.4692 38.5123 23.2894 38.1361 26.7612 36.698C30.233 35.2599 33.2004 32.8246 35.2882 29.7001C37.3759 26.5756 38.4902 22.9021 38.4902 19.1443C38.4806 14.1081 36.4757 9.28102 32.9146 5.71992C29.3535 2.15883 24.5264 0.153944 19.4902 0.144287ZM21.6825 27.9135H20.9518V29.3751C20.9518 29.7627 20.7978 30.1344 20.5237 30.4085C20.2496 30.6826 19.8779 30.8366 19.4902 30.8366C19.1026 30.8366 18.7309 30.6826 18.4568 30.4085C18.1827 30.1344 18.0287 29.7627 18.0287 29.3751V27.9135H15.1056C14.718 27.9135 14.3463 27.7595 14.0722 27.4854C13.7981 27.2113 13.6441 26.8396 13.6441 26.452C13.6441 26.0644 13.7981 25.6926 14.0722 25.4185C14.3463 25.1444 14.718 24.9904 15.1056 24.9904H21.6825C22.264 24.9904 22.8216 24.7595 23.2327 24.3483C23.6439 23.9372 23.8749 23.3796 23.8749 22.7981C23.8749 22.2167 23.6439 21.6591 23.2327 21.2479C22.8216 20.8368 22.264 20.6058 21.6825 20.6058H17.2979C15.9412 20.6058 14.6401 20.0669 13.6808 19.1076C12.7215 18.1482 12.1825 16.8471 12.1825 15.4904C12.1825 14.1338 12.7215 12.8326 13.6808 11.8733C14.6401 10.914 15.9412 10.3751 17.2979 10.3751H18.0287V8.91352C18.0287 8.52589 18.1827 8.15414 18.4568 7.88005C18.7309 7.60596 19.1026 7.45198 19.4902 7.45198C19.8779 7.45198 20.2496 7.60596 20.5237 7.88005C20.7978 8.15414 20.9518 8.52589 20.9518 8.91352V10.3751H23.8749C24.2625 10.3751 24.6342 10.529 24.9083 10.8031C25.1824 11.0772 25.3364 11.449 25.3364 11.8366C25.3364 12.2242 25.1824 12.596 24.9083 12.8701C24.6342 13.1441 24.2625 13.2981 23.8749 13.2981H17.2979C16.7165 13.2981 16.1589 13.5291 15.7477 13.9402C15.3366 14.3514 15.1056 14.909 15.1056 15.4904C15.1056 16.0719 15.3366 16.6295 15.7477 17.0406C16.1589 17.4518 16.7165 17.6827 17.2979 17.6827H21.6825C23.0392 17.6827 24.3403 18.2217 25.2997 19.181C26.259 20.1403 26.7979 21.4414 26.7979 22.7981C26.7979 24.1548 26.259 25.4559 25.2997 26.4153C24.3403 27.3746 23.0392 27.9135 21.6825 27.9135Z" fill="#181818"/>
</svg>
