<svg width="53" height="54" viewBox="0 0 53 54" fill="none" xmlns="http://www.w3.org/2000/svg">
<g id="Icon">
<circle id="Background" cx="26.3889" cy="26.8929" r="26.3889" fill="#181818"/>
<g id="Icon_2">
<path id="Icon_3" d="M27.1146 32.5925C30.4929 32.5925 33.2316 29.8538 33.2316 26.4755C33.2316 23.0971 30.4929 20.3584 27.1146 20.3584C23.7362 20.3584 20.9976 23.0971 20.9976 26.4755C20.9976 29.8538 23.7362 32.5925 27.1146 32.5925Z" stroke="#F5F5F5" stroke-width="2" stroke-linecap="round" stroke-linejoin="round"/>
<path id="Icon_4" d="M35.7183 20.5094C36.026 20.9442 36.2953 21.4041 36.5234 21.8843L39.8335 23.7006C40.2468 25.5277 40.2511 27.4217 39.8463 29.2506L36.5234 31.0669C36.2953 31.5471 36.026 32.007 35.7183 32.4418L35.7822 36.188C34.3794 37.4497 32.7191 38.4002 30.913 38.9756L27.654 37.0457C27.1179 37.0836 26.5798 37.0836 26.0437 37.0457L22.7976 38.963C20.9857 38.398 19.32 37.4512 17.9156 36.188L17.9795 32.4544C17.6744 32.0136 17.4051 31.5497 17.1743 31.0669L13.8643 29.2506C13.451 27.4235 13.4466 25.5295 13.8515 23.7006L17.1743 21.8843C17.4024 21.4041 17.6718 20.9442 17.9795 20.5094L17.9156 16.7632C19.3184 15.5016 20.9787 14.5511 22.7848 13.9756L26.0437 15.9055C26.5798 15.8677 27.1179 15.8677 27.654 15.9055L30.9002 13.9882C32.712 14.5532 34.3778 15.5 35.7822 16.7632L35.7183 20.5094Z" stroke="#F5F5F5" stroke-width="2" stroke-linecap="round" stroke-linejoin="round"/>
</g>
</g>
</svg>
