<svg width="24" height="20" viewBox="0 0 24 20" fill="none" xmlns="http://www.w3.org/2000/svg">
<path d="M23.4848 2.75533C22.6162 3.1325 21.6971 3.38099 20.7566 3.49294C21.745 2.91461 22.4883 1.99582 22.847 0.908898C21.9126 1.45492 20.892 1.83803 19.8289 2.04183C19.3812 1.573 18.8428 1.20004 18.2464 0.945608C17.65 0.691176 17.0081 0.56059 16.3596 0.561788C13.7342 0.561788 11.6095 2.65409 11.6095 5.23332C11.6076 5.59208 11.6488 5.94977 11.732 6.29875C9.84941 6.21056 8.00592 5.73064 6.31952 4.8897C4.63312 4.04877 3.14095 2.86533 1.93847 1.4151C1.51661 2.12577 1.2935 2.93662 1.29248 3.76292C1.29248 5.38277 2.1382 6.8146 3.41522 7.65345C2.65862 7.6355 1.91752 7.43539 1.25485 7.07011V7.12796C1.25485 9.39382 2.89515 11.2788 5.06614 11.7079C4.65789 11.8166 4.23719 11.8717 3.81469 11.8718C3.51489 11.8723 3.21577 11.8433 2.92168 11.785C3.52522 13.6411 5.28179 14.991 7.36257 15.0295C5.67179 16.3317 3.59596 17.0354 1.46133 17.0303C1.08243 17.0297 0.70388 17.0072 0.327591 16.9628C2.49915 18.3484 5.02342 19.0814 7.59993 19.0743C16.3495 19.0743 21.1295 11.9538 21.1295 5.77809C21.1295 5.57561 21.1242 5.37312 21.1146 5.17546C22.0424 4.51598 22.845 3.69644 23.4848 2.75533Z" fill="#181818"/>
</svg>
